<?xml version="1.0" encoding="UTF-8"?>
<svg id="Layer_2" data-name="Layer 2" xmlns="http://www.w3.org/2000/svg" viewBox="0 0 150.88 150.88">
  <defs>
    <style>
      .cls-1 {
        fill: #fff;
      }

      .cls-2 {
        fill: #447dc1;
      }
    </style>
  </defs>
  <g id="Layer_2-2" data-name="Layer 2">
    <g>
      <rect class="cls-2" width="150.88" height="150.88" rx="17.54" ry="17.54"/>
      <path class="cls-1" d="M139.63,98.81c-.33-.6-.96-.98-1.65-.98h-41.69s0,0,0,0,0,0,0,0H12.9c-.69,0-1.32.38-1.65.98s-.29,1.34.07,1.92l20.84,32.2c.34.54.93.86,1.57.86s1.23-.33,1.57-.86l19.27-29.77,19.27,29.77c.34.54.93.86,1.57.86s1.23-.33,1.57-.86l19.28-29.78,19.28,29.78c.34.54.93.86,1.57.86s1.23-.33,1.57-.86l20.84-32.2c.37-.58.41-1.32.07-1.92ZM33.74,128.47l-17.4-26.88h34.81l-17.4,26.88ZM75.45,128.47l-17.4-26.88h34.81l-17.4,26.88ZM117.14,128.47l-17.4-26.88h34.81l-17.4,26.88Z"/>
      <path class="cls-1" d="M102.1,47.84c-1.25-1.12-3.18-1.87-5.75-2.25h0s-28.74-4.76-37.54-6.18v-13.11h26.55v8.27h10.85v-4.79c0-4.98-.92-8.35-2.77-10.08s-5.28-2.61-10.34-2.61h-21.94c-4.98,0-8.41.86-10.29,2.56-1.88,1.71-2.81,5.01-2.81,9.93v7.83c0,4.92.93,8.22,2.81,9.93,1.07.98,2.68,1.66,4.77,2.08l.02.11s26.79,5.01,38.44,6.98v11.1h-37.35v-6.85h-10.85v2.85c0,5.46.85,9.14,2.56,11.05,1.71,1.91,5.25,2.86,10.64,2.86h32.64c4.98,0,8.43-.85,10.34-2.56s2.86-5.01,2.86-9.93v-7.26c0-4.92-.96-8.22-2.86-9.93h0Z"/>
    </g>
  </g>
</svg>